<?xml version="1.0" encoding="UTF-8"?>
<!DOCTYPE svg PUBLIC "-//W3C//DTD SVG 1.1//EN" "http://www.w3.org/Graphics/SVG/1.1/DTD/svg11.dtd">
<!-- Creator: CorelDRAW X5 -->
<svg xmlns="http://www.w3.org/2000/svg" xml:space="preserve" width="6.72in" height="6.72in" style="shape-rendering:geometricPrecision; text-rendering:geometricPrecision; image-rendering:optimizeQuality; fill-rule:evenodd; clip-rule:evenodd"
viewBox="0 0 6720 6720"
 xmlns:xlink="http://www.w3.org/1999/xlink">
 <defs>
  <style type="text/css">
   <![CDATA[
    .fil1 {fill:none}
    .fil0 {fill:black;fill-rule:nonzero}
   ]]>
  </style>
 </defs>
 <g id="Layer_x0020_1">
  <metadata id="CorelCorpID_0Corel-Layer"/>
  <g id="_375188112">
   <path class="fil0" d="M1505 1354l3704 0c35,0 63,28 63,63l0 911c0,35 -28,63 -63,63l-3704 0c-35,0 -63,-28 -63,-63l0 -911c0,-35 28,-63 63,-63zm3642 125l-3579 0 0 786 3579 0 0 -786z"/>
   <path class="fil0" d="M1505 2842l3704 0c35,0 63,28 63,63l0 911c0,35 -28,63 -63,63l-3704 0c-35,0 -63,-28 -63,-63l0 -911c0,-35 28,-63 63,-63zm3642 125l-3579 0 0 786 3579 0 0 -786z"/>
   <path class="fil0" d="M1505 4330l3704 0c35,0 63,28 63,63l0 911c0,35 -28,63 -63,63l-3704 0c-35,0 -63,-28 -63,-63l0 -911c0,-35 28,-63 63,-63zm3642 125l-3579 0 0 786 3579 0 0 -786z"/>
   <path class="fil0" d="M1485 3243c35,0 63,-28 63,-63 0,-35 -28,-63 -63,-63 -155,0 -295,-63 -396,-164 -101,-101 -164,-241 -164,-396 0,-155 63,-295 164,-396 101,-101 241,-164 396,-164 35,0 63,-28 63,-63 0,-35 -28,-63 -63,-63 -189,0 -360,77 -484,201 -124,124 -201,295 -201,484 0,189 77,360 201,484 124,124 295,201 484,201z"/>
   <path class="fil0" d="M5235 4672c-35,0 -63,28 -63,63 0,35 28,63 63,63l0 0c189,0 360,-77 484,-201 124,-124 201,-295 201,-484 0,-189 -77,-360 -201,-484 -124,-124 -295,-201 -484,-201l0 0c-35,0 -63,28 -63,63 0,35 28,63 63,63l0 0c155,0 295,63 396,164 101,101 164,241 164,396 0,155 -63,295 -164,396 -101,101 -241,164 -396,164l0 0z"/>
   <path class="fil0" d="M3199 1810c-35,0 -63,28 -63,63 0,35 28,63 63,63l295 0c35,0 63,-28 63,-63 0,-35 -28,-63 -63,-63l-295 0z"/>
   <path class="fil0" d="M2481 1810c-35,0 -63,28 -63,63 0,35 28,63 63,63l295 0c35,0 63,-28 63,-63 0,-35 -28,-63 -63,-63l-295 0z"/>
   <path class="fil0" d="M1763 1810c-35,0 -63,28 -63,63 0,35 28,63 63,63l295 0c35,0 63,-28 63,-63 0,-35 -28,-63 -63,-63l-295 0z"/>
   <path class="fil0" d="M3199 3297c-35,0 -63,28 -63,63 0,35 28,63 63,63l295 0c35,0 63,-28 63,-63 0,-35 -28,-63 -63,-63l-295 0z"/>
   <path class="fil0" d="M2481 3297c-35,0 -63,28 -63,63 0,35 28,63 63,63l295 0c35,0 63,-28 63,-63 0,-35 -28,-63 -63,-63l-295 0z"/>
   <path class="fil0" d="M1763 3297c-35,0 -63,28 -63,63 0,35 28,63 63,63l295 0c35,0 63,-28 63,-63 0,-35 -28,-63 -63,-63l-295 0z"/>
   <path class="fil0" d="M3199 4785c-35,0 -63,28 -63,63 0,35 28,63 63,63l295 0c35,0 63,-28 63,-63 0,-35 -28,-63 -63,-63l-295 0z"/>
   <path class="fil0" d="M2481 4785c-35,0 -63,28 -63,63 0,35 28,63 63,63l295 0c35,0 63,-28 63,-63 0,-35 -28,-63 -63,-63l-295 0z"/>
   <path class="fil0" d="M1763 4785c-35,0 -63,28 -63,63 0,35 28,63 63,63l295 0c35,0 63,-28 63,-63 0,-35 -28,-63 -63,-63l-295 0z"/>
  </g>
 </g>
 <rect class="fil1" width="6720" height="6720"/>
</svg>
